<?xml version="1.0" encoding="iso-8859-1"?>
<!-- Generator: Adobe Illustrator 19.0.0, SVG Export Plug-In . SVG Version: 6.00 Build 0)  -->
<svg version="1.1" id="Capa_1" xmlns="http://www.w3.org/2000/svg" xmlns:xlink="http://www.w3.org/1999/xlink" x="0px" y="0px"
	 viewBox="0 0 215.052 215.052" style="enable-background:new 0 0 215.052 215.052;" xml:space="preserve">
<g>
	<g>
		<path d="M206.74,0h-75.093c-1.884,0-3.413,1.529-3.413,3.413v110.082h6.827V6.827h68.267V204.8h-55.892v6.827h59.305
			c1.886,0,3.413-1.527,3.413-3.413V3.413C210.154,1.529,208.624,0,206.74,0z"/>
	</g>
</g>
<g>
	<g>
		<path d="M162.367,0c-1.884,0-3.413,1.529-3.413,3.413V81.92c0,1.884,1.529,3.413,3.413,3.413c1.886,0,3.413-1.527,3.413-3.413
			V3.413C165.78,1.529,164.251,0,162.367,0z"/>
	</g>
</g>
<g>
	<g>
		<path d="M162.367,139.947c-1.884,0-3.413,1.529-3.413,3.413v64.853c0,1.884,1.529,3.413,3.413,3.413
			c1.886,0,3.413-1.527,3.413-3.413V143.36C165.78,141.476,164.251,139.947,162.367,139.947z"/>
	</g>
</g>
<g>
	<g>
		<path d="M162.367,98.987c-1.884,0-3.413,1.529-3.413,3.413v20.48c0,1.884,1.529,3.413,3.413,3.413
			c1.886,0,3.413-1.527,3.413-3.413V102.4C165.78,100.516,164.251,98.987,162.367,98.987z"/>
	</g>
</g>
<g>
	<g>
		<path d="M151.893,159.136c-0.717-2.656-1.403-5.248-2.072-7.769c-6.18-23.33-10.644-40.187-22.468-43.687
			c-4.671-1.382-14.385-4.262-24.866,1.958c-8.24,4.89-35.84,4.886-44.08,0c-10.484-6.221-20.2-3.34-24.888-1.952
			c-11.802,3.494-16.266,20.35-22.446,43.68c-0.669,2.521-1.355,5.113-2.072,7.769c-5.495,20.342-5.466,39.685,0.07,49.277
			c1.964,3.405,4.545,5.552,7.668,6.381c0.643,0.171,1.287,0.253,1.93,0.253c7.438,0,14.957-10.892,22.252-21.448
			c3.113-4.511,6.33-9.172,8.071-10.522c1.208-0.937,5.845-3.096,22.596-2.865l20.871-0.015c14.283,0.065,18.355,2.036,19.444,2.881
			h0.002c1.739,1.35,4.958,6.011,8.071,10.522c7.926,11.474,16.123,23.366,24.18,21.197c3.123-0.829,5.704-2.976,7.668-6.381
			C157.36,198.822,157.389,179.478,151.893,159.136z M145.915,204.995c-1.026,1.775-2.207,2.852-3.511,3.198
			c-3.422,0.858-12.803-12.681-16.809-18.48c-3.872-5.608-6.932-10.039-9.504-12.035c-2.341-1.816-7.335-4.239-23.617-4.313
			l-20.84,0.015c-14.083-0.201-22.852,1.215-26.825,4.299c-2.574,1.997-5.632,6.427-9.506,12.035
			c-4.007,5.803-13.362,19.391-16.809,18.48c-1.304-0.346-2.485-1.423-3.511-3.198c-3.833-6.637-5.129-22.842,0.608-44.083
			c0.72-2.664,1.41-5.27,2.08-7.799c5.4-20.379,9.665-36.477,17.809-38.888c2.169-0.642,5.338-1.582,9.039-1.582
			c3.178,0,6.748,0.693,10.409,2.862c10.257,6.086,40.789,6.086,51.046,0c7.917-4.693,15.416-2.476,19.468-1.275
			c8.122,2.405,12.385,18.502,17.785,38.881c0.671,2.529,1.36,5.134,2.08,7.799C151.043,182.153,149.746,198.357,145.915,204.995z"
			/>
	</g>
</g>
<g>
	<g>
		<rect x="42.895" y="129.712" width="6.827" height="27.307"/>
	</g>
</g>
<g>
	<g>
		<path d="M112.874,129.707c-8.47,0-15.36,6.89-15.36,15.36c0,8.47,6.89,15.36,15.36,15.36s15.36-6.89,15.36-15.36
			C128.234,136.596,121.344,129.707,112.874,129.707z M112.874,153.6c-4.705,0-8.533-3.828-8.533-8.533
			c0-4.705,3.828-8.533,8.533-8.533s8.533,3.828,8.533,8.533C121.407,149.772,117.579,153.6,112.874,153.6z"/>
	</g>
</g>
<g>
	<g>
		<path d="M187.967,17.067c-6.586,0-11.947,5.361-11.947,11.947s5.361,11.947,11.947,11.947c6.588,0,11.947-5.361,11.947-11.947
			S194.553,17.067,187.967,17.067z M187.967,34.133c-2.823,0-5.12-2.297-5.12-5.12s2.297-5.12,5.12-5.12
			c2.825,0,5.12,2.297,5.12,5.12S190.79,34.133,187.967,34.133z"/>
	</g>
</g>
<g>
	<g>
		<path d="M187.967,47.787c-6.586,0-11.947,5.361-11.947,11.947c0,6.586,5.361,11.947,11.947,11.947
			c6.588,0,11.947-5.361,11.947-11.947C199.914,53.147,194.553,47.787,187.967,47.787z M187.967,64.853
			c-2.823,0-5.12-2.297-5.12-5.12c0-2.823,2.297-5.12,5.12-5.12c2.825,0,5.12,2.297,5.12,5.12
			C193.087,62.556,190.79,64.853,187.967,64.853z"/>
	</g>
</g>
<g>
	<g>
		<path d="M162.367,78.507c-7.528,0-13.653,6.125-13.653,13.653c0,7.528,6.125,13.653,13.653,13.653
			c7.53,0,13.653-6.125,13.653-13.653C176.02,84.632,169.895,78.507,162.367,78.507z M162.367,98.987
			c-3.765,0-6.827-3.062-6.827-6.827s3.062-6.827,6.827-6.827s6.827,3.062,6.827,6.827S166.132,98.987,162.367,98.987z"/>
	</g>
</g>
<g>
	<g>
		<path d="M162.367,119.467c-7.528,0-13.653,6.125-13.653,13.653c0,7.528,6.125,13.653,13.653,13.653
			c7.53,0,13.653-6.125,13.653-13.653C176.02,125.592,169.895,119.467,162.367,119.467z M162.367,139.947
			c-3.765,0-6.827-3.062-6.827-6.827c0-3.765,3.062-6.827,6.827-6.827s6.827,3.062,6.827,6.827
			C169.194,136.885,166.132,139.947,162.367,139.947z"/>
	</g>
</g>
<g>
	<g>
		<rect x="32.655" y="139.952" width="27.307" height="6.827"/>
	</g>
</g>
<g>
</g>
<g>
</g>
<g>
</g>
<g>
</g>
<g>
</g>
<g>
</g>
<g>
</g>
<g>
</g>
<g>
</g>
<g>
</g>
<g>
</g>
<g>
</g>
<g>
</g>
<g>
</g>
<g>
</g>
</svg>
