<svg id="Capa_1" enable-background="new 0 0 512 512" height="512" viewBox="0 0 512 512" width="512" xmlns="http://www.w3.org/2000/svg"><g><path d="m504.536 412.081c4.123 0 7.464-3.342 7.464-7.464v-226.23c0-9.656-7.855-17.511-17.511-17.511h-7.872l-41.129-141.79c-3.46-11.927-15.974-18.817-27.905-15.356l-204.217 59.237c-26.895 7.802-42.43 36.03-34.629 62.927l5.316 18.328c-1.81-.059-3.624-.091-5.444-.091-10.599 0-21.201 1.047-31.583 3.113-.34-.38-.701-.744-1.082-1.089-3.034-2.743-7.114-4.082-11.176-3.668l-73.938 7.476c-6.227.63-11.156 5.091-12.594 10.914h-30.725c-9.656-.002-17.511 7.854-17.511 17.509v308.242c0 12.426 10.109 22.535 22.535 22.535h202.206c4.815.113 8.618-4.939 7.172-9.535-.657-2.275-.99-4.621-.99-6.972 0-13.828 11.25-25.078 25.078-25.078s25.078 11.25 25.078 25.078c0 2.354-.333 4.698-.989 6.97-1.453 4.608 2.372 9.667 7.199 9.537h202.178c12.426 0 22.535-10.109 22.535-22.535v-46.431c0-4.122-3.341-7.464-7.464-7.464s-7.464 3.342-7.464 7.464v30.318c0 1.424-1.159 2.582-2.582 2.582h-37.925c-27.649 0-54.228-3.565-78.997-10.594-14.381-4.082-29.243-6.151-44.177-6.151-16.751 0-33.338 2.601-49.382 7.738-.071-.07-.147-.113-.219-.174-5.499-5.319-12.512-9.077-20.325-10.558v-242.132c0-4.122-3.341-7.464-7.464-7.464s-7.464 3.342-7.464 7.464v242.132c-7.906 1.499-14.995 5.327-20.523 10.747-16.051-5.141-32.644-7.753-49.402-7.753-14.934 0-29.796 2.069-44.176 6.151-24.771 7.03-51.349 10.594-78.998 10.594h-37.929c-1.424 0-2.582-1.159-2.582-2.582v-292.129c0-1.424 1.159-2.582 2.582-2.582h30.286v50.429c0 4.122 3.341 7.464 7.464 7.464s7.464-3.342 7.464-7.464v-61.458l73.063-7.387v203.205l-27.351-16.85c-5.663-3.489-12.699-3.488-18.361 0l-27.351 16.85v-97.303c0-4.122-3.341-7.464-7.464-7.464s-7.464 3.342-7.464 7.464v101.68c0 4.519 2.451 8.695 6.396 10.899 3.946 2.204 8.787 2.1 12.635-.27l31.078-19.146c.833-.513 1.866-.514 2.701 0l31.078 19.146c2.003 1.234 4.275 1.853 6.549 1.853 2.095 0 4.194-.526 6.086-1.583 3.945-2.204 6.396-6.38 6.396-10.899v-203.229c9.176-1.775 18.535-2.683 27.892-2.683 25.828 0 50.63 6.62 73.715 19.676 2.255 1.281 5.135 1.277 7.385-.019 23.075-13.043 47.865-19.657 73.679-19.657 13.556 0 27.049 1.879 40.101 5.583 26.095 7.407 54.045 11.162 83.074 11.162h37.925c1.424 0 2.582 1.159 2.582 2.582v226.23c.002 4.124 3.344 7.466 7.467 7.466zm-131.045 64.783c26.095 7.407 54.045 11.162 83.074 11.162 0 0 39.591-.08 40.403-.196-.579 3.623-3.718 6.403-7.502 6.403h-193.491c.02-.525.031-1.052.031-1.578 0-5.547-1.136-10.832-3.186-15.639 13.238-3.807 26.845-5.736 40.569-5.736 13.555.001 27.048 1.88 40.102 5.584zm-318.055 11.162c29.028 0 56.978-3.756 83.075-11.162 13.053-3.705 26.544-5.583 40.1-5.583 13.723 0 27.331 1.929 40.569 5.736-2.049 4.807-3.186 10.092-3.186 15.639 0 .526.011 1.053.031 1.578h-193.49c-3.784 0-6.922-2.78-7.502-6.403.812.115 40.403.195 40.403.195zm137.639-366.292c-5.508-18.99 5.46-38.921 24.451-44.43l13.702-3.974 26.027 89.727c-.42.22-.836.454-1.255.678-17.843-9.543-36.601-15.641-56.022-18.206zm184.492 28.546c-14.379-4.082-29.241-6.151-44.177-6.151-21.599 0-42.526 4.206-62.453 12.508l-25.371-87.466 176.177-51.104c4.022-1.168 8.241 1.157 9.407 5.177l39.922 137.63h-14.508c-27.649.001-54.228-3.564-78.997-10.594z"/><path d="m433.672 232.324h-110.096c-4.123 0-7.464 3.342-7.464 7.464s3.341 7.464 7.464 7.464h110.096c4.123 0 7.464-3.342 7.464-7.464.001-4.122-3.341-7.464-7.464-7.464z"/><path d="m433.672 275.727h-110.096c-4.123 0-7.464 3.342-7.464 7.464s3.341 7.464 7.464 7.464h110.096c4.123 0 7.464-3.342 7.464-7.464s-3.341-7.464-7.464-7.464z"/><path d="m441.137 326.595c0-4.122-3.341-7.464-7.464-7.464h-110.097c-4.123 0-7.464 3.342-7.464 7.464s3.341 7.464 7.464 7.464h110.096c4.123 0 7.465-3.342 7.465-7.464z"/><path d="m323.576 362.534c-4.123 0-7.464 3.342-7.464 7.464s3.341 7.464 7.464 7.464h42.951c4.123 0 7.464-3.342 7.464-7.464s-3.341-7.464-7.464-7.464z"/></g></svg>